<svg width="308" height="327" viewBox="0 0 308 327" fill="none" xmlns="http://www.w3.org/2000/svg">
<path d="M195.69 300.271C193.927 301.893 191.156 303.21 188.239 302.477C186.133 301.948 116.514 284.325 114.4 283.73C108.34 282.054 105.285 278.832 104.111 275.238C102.316 269.773 76.7063 215.29 25.0642 180.957C19.5379 177.297 34.7763 156.802 51.0338 166.442C62.1745 173.048 90.0717 200.676 96.2772 198.959C101.07 197.63 112.835 179.967 118.298 140.213L129.265 60.2865C129.884 56.7533 131.812 53.6039 134.644 51.4998C137.476 49.3957 140.992 48.5007 144.452 49.0028C147.913 49.505 151.05 51.3651 153.204 54.1926C155.358 57.02 156.361 60.5947 156.002 64.1656L146.44 133.917C145.498 140.718 146.987 144.391 150.533 144.961C153.688 145.483 155.221 144.03 156.673 137.731L172.732 54.8278C173.075 53.0424 173.758 51.344 174.742 49.8299C175.725 48.3158 176.989 47.0155 178.462 46.0036C179.935 44.9916 181.588 44.2877 183.325 43.9321C185.063 43.5765 186.853 43.5762 188.591 43.9313C190.331 44.2814 191.988 44.9812 193.465 45.9905C194.942 46.9997 196.21 48.2987 197.197 49.8127C198.184 51.3267 198.869 53.0259 199.215 54.8129C199.561 56.5999 199.56 58.4394 199.211 60.2259L183.946 139.061C182.614 145.999 182.945 150.243 186.958 150.752C189.367 151.061 190.946 147.934 191.924 144.972L211.996 72.9894C212.445 71.1931 213.24 69.5076 214.335 68.0323C215.429 66.557 216.8 65.322 218.366 64.4001C219.933 63.4783 221.664 62.8883 223.456 62.6651C225.249 62.442 227.067 62.5901 228.803 63.1007C230.539 63.6114 232.157 64.4742 233.563 65.6383C234.968 66.8023 236.133 68.2439 236.987 69.8779C237.841 71.5119 238.367 73.3051 238.535 75.1516C238.702 76.9981 238.508 78.8603 237.963 80.6284L219.477 146.974C216.747 156.717 216.914 160.909 220.666 162.015C224.486 163.161 225.919 160.239 226.772 157.632L244.987 102.073C246.144 99.0679 248.381 96.6336 251.235 95.2724C254.089 93.9113 257.343 93.7272 260.326 94.7581C263.308 95.789 265.792 97.9563 267.264 100.813C268.736 103.669 269.084 106.997 268.237 110.11L248.397 170.578L248.402 170.596L248.396 170.608L236.494 206.865C234.436 213.817 232.781 220.533 231.661 227.412C225.134 267.838 201.504 294.841 195.69 300.271Z" fill="#F59E0B"/>
<path d="M210.869 52.5985C210.22 49.2454 208.93 46.0442 207.065 43.183C205.2 40.3214 202.799 37.8601 199.997 35.9454C197.2 34.0338 194.065 32.7089 190.775 32.0449C187.491 31.3768 184.122 31.3807 180.861 32.0481C177.593 32.7166 174.498 34.0374 171.748 35.9268C168.999 37.8159 166.644 40.2389 164.815 43.0553C163.998 44.3149 163.291 45.6432 162.703 47.0246C162.653 46.9579 162.603 46.8914 162.552 46.8252C158.479 41.4772 152.538 37.9542 145.992 37.0044C139.451 36.0554 132.856 37.753 127.578 41.6743C122.304 45.5929 118.721 51.4487 117.57 58.0219L117.531 58.2455L117.5 58.4704L106.533 138.395C106.533 138.396 106.533 138.396 106.533 138.397C103.923 157.388 99.8718 170.598 96.1983 178.906C95.1716 181.228 94.2048 183.098 93.3487 184.566C90.4306 182.51 86.8684 179.687 82.896 176.42C81.0194 174.877 78.8942 173.103 76.7501 171.312C74.1535 169.144 71.5293 166.953 69.2855 165.122C65.0762 161.686 60.5843 158.158 56.9141 155.982C43.0995 147.79 29.8239 152.899 22.2162 159.362C18.466 162.548 15.2485 166.681 13.4834 171.136C12.618 173.321 11.784 176.386 12.0974 179.859C12.4432 183.693 14.286 188.183 18.6596 191.088C42.8566 207.175 61.1464 228.132 73.6565 245.914C79.89 254.775 84.6205 262.751 87.8733 268.779C89.4995 271.793 90.7414 274.292 91.6068 276.142C92.4009 277.84 92.7557 278.731 92.8349 278.93C92.85 278.968 92.8551 278.98 92.8512 278.968C95.5618 287.243 102.328 292.911 111.414 295.425C114.495 296.269 183.465 313.726 185.524 314.243C193.565 316.263 200.2 312.535 203.703 309.312L203.734 309.283L172.732 54.8278C173.075 53.0424 173.758 51.344 174.742 49.8299C175.725 48.3158 176.989 47.0155 178.462 46.0036C179.935 44.9916 181.588 44.2877 183.325 43.9321C185.063 43.5765 186.853 43.5762 188.591 43.9313C190.331 44.2814 191.988 44.9812 193.465 45.9905C194.942 46.9997 196.21 48.2987 197.197 49.8127C198.184 51.3267 198.869 53.0259 199.215 54.8129C199.561 56.5999 199.56 58.4394 199.211 60.2259M210.869 52.5985L199.364 54.7847L210.869 52.5985C210.869 52.5985 210.869 52.5985 210.869 52.5985ZM210.869 52.5985C210.998 53.2669 211.101 53.9387 211.179 54.6124M211.179 54.6124C208.738 56.2346 206.59 58.2768 204.831 60.649C204.667 60.87 204.507 61.0936 204.35 61.3197L199.211 60.2259M211.179 54.6124C211.56 54.3593 211.948 54.1163 212.343 53.884L212.343 53.884C215.268 52.1626 218.511 51.0545 221.883 50.6346C225.256 50.2147 228.687 50.4922 231.972 51.4586C235.257 52.4251 238.323 54.0591 240.985 56.2636L233.563 65.6383M211.179 54.6124C211.49 57.3167 211.384 60.0517 210.864 62.717C210.864 62.7186 210.864 62.7202 210.864 62.7218L210.424 64.9938L209.047 72.1016L211.996 72.9894M199.211 60.2259L190.222 106.65L200.53 69.683C201.304 66.6809 202.597 63.8508 204.346 61.3258L199.211 60.2259ZM191.924 144.972L187.747 143.715L187.738 143.712L183.415 142.411C182.838 147.354 183.639 150.331 186.958 150.752C189.367 151.061 190.946 147.934 191.924 144.972ZM191.924 144.972L187.771 143.501L187.762 143.498L183.468 141.977C183.579 141.122 183.728 140.211 183.911 139.247C184.022 139.205 184.135 139.164 184.251 139.126L188.154 139.956L188.169 139.96L192.717 140.928C192.778 140.985 192.838 141.044 192.897 141.104C192.925 141.132 192.952 141.16 192.98 141.188L191.924 144.972ZM209.031 72.1852L201.783 109.616L211.996 72.9894M209.031 72.1852L188.239 302.477C191.156 303.21 193.927 301.893 195.69 300.271C201.504 294.841 225.134 267.838 231.661 227.412M209.031 72.1852L211.996 72.9894M211.996 72.9894C212.445 71.1931 213.24 69.5076 214.335 68.0323C215.429 66.557 216.8 65.322 218.366 64.4001C219.933 63.4783 221.664 62.8883 223.456 62.6651C225.249 62.442 227.067 62.5901 228.803 63.1007C230.539 63.6114 232.157 64.4742 233.563 65.6383M233.563 65.6383C234.968 66.8023 236.133 68.2439 236.987 69.8779C237.841 71.5119 238.367 73.3051 238.535 75.1516C238.702 76.9981 238.508 78.8603 237.963 80.6284M233.563 65.6383L240.985 56.2636C243.647 58.468 245.846 61.1933 247.455 64.2725C249.064 67.3513 250.05 70.7184 250.363 74.1719C250.63 77.113 250.406 80.068 249.707 82.9115M237.963 80.6284L229.556 110.8L233.717 98.1099L233.813 97.8162L233.924 97.5281C236.173 91.689 240.522 86.9442 246.103 84.2825C246.511 84.0881 246.923 83.9058 247.339 83.7358L237.963 80.6284ZM237.963 80.6284L247.75 83.5723C248.394 83.323 249.047 83.1026 249.707 82.9115M249.707 82.9115C249.6 83.3442 249.483 83.7744 249.355 84.2016L248.125 88.6133L244.438 101.848L244.43 101.877L240.912 114.502L244.987 102.073C246.144 99.0679 248.381 96.6336 251.235 95.2724C254.089 93.9113 257.343 93.7272 260.326 94.7581C263.308 95.789 265.792 97.9563 267.264 100.813C268.736 103.669 269.084 106.997 268.237 110.11L248.397 170.578L248.402 170.596L248.396 170.608L236.494 206.865C234.436 213.817 232.781 220.533 231.661 227.412M249.707 82.9115C254.352 81.5657 259.342 81.6669 264.021 83.2841C269.94 85.3303 274.858 89.6308 277.765 95.2706C280.668 100.905 281.334 107.423 279.686 113.478L279.604 113.779L279.506 114.076L260.796 171.102L261.141 172.417L259.295 175.7L247.819 210.66C245.887 217.207 244.388 223.349 243.381 229.527M231.661 227.412L243.38 229.533C243.381 229.531 243.381 229.529 243.381 229.527M231.661 227.412L243.383 229.516C243.382 229.52 243.382 229.523 243.381 229.527" stroke="black" stroke-width="24"/>
</svg>
